<svg xmlns="http://www.w3.org/2000/svg" viewBox="0 0 100 100" width="512" height="512">
  <!-- Brain icon for AI -->
  <rect width="100" height="100" fill="none"/>
  <g transform="translate(50, 50)">
    <!-- Brain shape -->
    <path d="M-15,-8 Q-20,-15 -15,-22 Q-8,-25 -5,-20 Q-2,-25 5,-22 Q10,-15 15,-8 Q20,-5 20,5 Q15,15 5,18 Q-5,18 -15,15 Q-20,5 -15,-8 Z" 
          fill="none" stroke="#0066ff" stroke-width="2" stroke-linecap="round" stroke-linejoin="round"/>
    <!-- Brain folds -->
    <path d="M-8,-5 Q-8,0 -5,3" fill="none" stroke="#0066ff" stroke-width="1.5" stroke-linecap="round"/>
    <path d="M0,-8 Q0,2 0,5" fill="none" stroke="#0066ff" stroke-width="1.5" stroke-linecap="round"/>
    <path d="M8,-5 Q8,0 5,3" fill="none" stroke="#0066ff" stroke-width="1.5" stroke-linecap="round"/>
    <!-- Circuit dots -->
    <circle cx="-12" cy="8" r="1.5" fill="#0066ff"/>
    <circle cx="0" cy="10" r="1.5" fill="#0066ff"/>
    <circle cx="12" cy="8" r="1.5" fill="#0066ff"/>
  </g>
</svg>
